#!OML:ASF Y:\EmotionMaleHayes\Project 1\Capture day 1\Session 1\Male1.ASF
:FULLY-SPECIFIED
:DEGREES
254
root -28.754 17.0644 1.10384 88.8744 86.6411 89.1688
lowerback 4.68373 1.68289 -3.77389
upperback 1.39408 2.08468 -0.487687
thorax -1.30569 1.0567 1.49205
lowerneck -22.0183 2.81309 4.113
upperneck 25.8445 3.83392 -3.41148
head 12.3637 1.75301 -1.3144
rclavicle 9.03228e-015 6.75868e-015
rhumerus -34.1161 8.72418 -91.1895
rradius 31.0611
rwrist 4.6983
rhand -8.87832 -31.0082
rfingers 7.12502
rthumb 17.0636 -60.2788
lclavicle 9.03228e-015 6.75868e-015
lhumerus -37.062 -12.3979 90.7518
lradius 34.4574
lwrist -3.87209
lhand -14.0431 -26.906
lfingers 7.12502
lthumb 12.0876 2.72489
rfemur 9.47444 -3.83568 8.93321
rtibia 1.94517
rfoot -14.2024 0.79219
rtoes 10.3725
lfemur 9.46642 -0.99757 -15.9455
ltibia 1.52344
lfoot -12.1112 9.93121
ltoes -11.7927
255
root -28.7598 17.0616 1.10311 94.078 86.7966 94.3157
lowerback 4.67362 1.65394 -3.57085
upperback 1.48499 2.06002 -0.389363
thorax -1.20191 1.04164 1.48311
lowerneck -22.0216 2.81035 4.0298
upperneck 25.7304 3.86825 -3.46398
head 12.3201 1.75158 -1.31413
rclavicle 5.8393e-016 1.0138e-014
rhumerus -34.0902 8.84317 -91.1949
rradius 31.2625
rwrist 4.86632
rhand -8.64974 -31.494
rfingers 7.12502
rthumb 17.2836 -60.7454
lclavicle 5.8393e-016 1.0138e-014
lhumerus -37.2864 -12.3441 90.6723
lradius 34.819
lwrist -3.63209
lhand -14.7607 -26.9493
lfingers 7.12502
lthumb 11.3955 2.72109
rfemur 9.48767 -3.80449 9.19443
rtibia 1.8666
rfoot -14.2582 0.461999
rtoes 11.0482
lfemur 9.08438 -0.95175 -15.7117
ltibia 2.04649
lfoot -12.2511 9.67608
ltoes -12.637
256
root -28.7662 17.0612 1.107 99.444 86.961 99.7887
lowerback 4.86587 1.65606 -3.35297
upperback 1.62445 2.07159 -0.285658
thorax -1.16271 1.04605 1.46392
lowerneck -22.0418 2.78325 3.97587
upperneck 25.586 3.86474 -3.55351
head 12.2679 1.73071 -1.33909
rclavicle -6.93262e-015 -3.18055e-015
rhumerus -34.0112 9.24936 -91.3279
rradius 31.517
rwrist 4.45654
rhand -8.89452 -31.8539
rfingers 7.12502
rthumb 17.048 -61.1259
lclavicle -6.93262e-015 -3.18055e-015
lhumerus -37.4904 -12.3735 90.5828
lradius 35.3287
lwrist -2.86351
lhand -15.1536 -27.1245
lfingers 7.12502
lthumb 11.0166 2.56637
rfemur 9.7071 -3.53219 9.56185
rtibia 1.68793
rfoot -14.4179 -0.0904261
rtoes 10.5879
lfemur 8.89238 -1.0394 -15.4251
ltibia 2.49454
lfoot -12.4218 9.51424
ltoes -12.8018
257
root -28.7766 17.0579 1.11162 99.6041 87.102 99.8985
lowerback 5.00404 1.77751 -3.18084
upperback 1.64861 2.23764 -0.230454
thorax -1.21917 1.12961 1.41007
lowerneck -22.0777 2.75359 3.95087
upperneck 25.6205 3.85722 -3.63067
head 12.2896 1.71472 -1.36525
rclavicle 1.29955e-014 -7.15625e-015
rhumerus -34.0119 9.51399 -91.4467
rradius 31.7212
rwrist 4.06935
rhand -9.2498 -31.6317
rfingers 7.12502
rthumb 16.706 -60.9329
lclavicle 1.29955e-014 -7.15625e-015
lhumerus -37.747 -12.2646 90.3986
lradius 35.7757
lwrist -2.12163
lhand -15.1269 -27.3172
lfingers 7.12502
lthumb 11.0423 2.37232
rfemur 9.56321 -2.97643 9.93091
rtibia 1.67651
rfoot -14.6419 -0.717774
rtoes 9.49401
lfemur 8.54591 -0.971306 -15.1762
ltibia 2.93109
lfoot -12.4971 9.41769
ltoes -12.4577
258
root -28.7919 17.0547 1.10316 96.2858 86.8191 96.2826
lowerback 4.96184 1.96402 -3.40487
upperback 1.58561 2.47391 -0.261971
thorax -1.27964 1.24873 1.48772
lowerneck -22.1172 2.59744 3.83824
upperneck 25.7971 3.75008 -3.82638
head 12.3644 1.63195 -1.43948
rclavicle -6.26172e-015 4.17448e-015
rhumerus -34.1205 9.77036 -91.4338
rradius 32.0751
rwrist 3.81377
rhand -9.55933 -31.6409
rfingers 7.12502
rthumb 16.408 -60.9669
lclavicle -6.26172e-015 4.17448e-015
lhumerus -38.0486 -12.1479 90.3754
lradius 36.0571
lwrist -1.7517
lhand -15.7271 -27.5585
lfingers 7.12502
lthumb 10.4634 2.16114
rfemur 8.95973 -3.18943 9.42512
rtibia 2.03617
rfoot -14.6389 -0.366309
rtoes 9.67655
lfemur 7.88105 -0.815672 -15.6199
ltibia 3.51372
lfoot -12.6607 9.47002
ltoes -12.9809
259
root -28.8009 17.0572 1.09649 100.503 86.2989 100.3
lowerback 5.00466 2.00106 -3.84802
upperback 1.52224 2.49746 -0.298583
thorax -1.38654 1.26321 1.693
lowerneck -21.9398 2.50425 3.67517
upperneck 25.6181 3.68645 -3.86804
head 12.2528 1.58442 -1.43869
rclavicle -5.29264e-015 3.97569e-016
rhumerus -34.3098 10.1626 -91.4598
rradius 32.4567
rwrist 3.50732
rhand -9.71283 -32.0012
rfingers 7.12502
rthumb 16.2602 -61.3394
lclavicle -5.29264e-015 3.97569e-016
lhumerus -38.5492 -12.1712 90.5373
lradius 36.2843
lwrist -1.72389
lhand -17.102 -27.7625
lfingers 7.12502
lthumb 9.13687 2.01958
rfemur 8.75443 -3.94062 8.5877
rtibia 2.19578
rfoot -14.5356 0.0871227
rtoes 9.83834
lfemur 7.26402 -0.743803 -16.2742
ltibia 4.15517
lfoot -12.7733 9.25198
ltoes -14.2219
